<?xml version="1.0" standalone="no"?><!DOCTYPE svg PUBLIC "-//W3C//DTD SVG 1.1//EN" "http://www.w3.org/Graphics/SVG/1.1/DTD/svg11.dtd"><svg t="1778771138447" class="icon" viewBox="0 0 1024 1024" version="1.1" xmlns="http://www.w3.org/2000/svg" p-id="5606" xmlns:xlink="http://www.w3.org/1999/xlink" width="48" height="48"><path d="M817.152 435.541333c-36.864 0-73.728 21.162667-89.429333 53.248l-242.005334-26.624-84.309333-180.565333c31.402667-26.624 47.445333-68.949333 47.445333-111.616 0-90.453333-68.266667-159.402667-157.696-159.402667C201.728 10.24 133.461333 79.189333 133.461333 169.642667s68.266667 159.402667 157.696 159.402666c26.282667 0 47.445333-5.461333 68.266667-16.042666l89.429333 196.608L338.602667 754.346667H317.44c-73.728 0-131.413333 58.368-131.413333 132.778666 0 74.410667 58.026667 132.778667 131.413333 132.778667s131.413333-58.368 131.413333-132.778667c0-47.786667-26.282667-90.453333-63.146666-111.616l115.712-255.317333 210.261333 21.162667c0 58.368 47.445333 106.154667 105.130667 106.154666 58.026667 0 105.130667-47.786667 105.130666-106.154666 0.341333-58.026667-46.762667-105.813333-104.789333-105.813334z" fill="#020202" p-id="5607"></path></svg>